<?xml version="1.0" encoding="UTF-8"?><svg id="_лой_2" xmlns="http://www.w3.org/2000/svg" viewBox="0 0 18.96 18.96"><defs><style>.cls-1{fill:#fff;}</style></defs><g id="Object"><g><g><path class="cls-1" d="M10.48,18.86h-2c-.39,0-.7-.32-.7-.7v-.85c0-.41-.26-.77-.65-.9-.3-.1-.6-.23-.89-.37-.36-.18-.78-.11-1.06,.17l-.62,.62c-.27,.27-.73,.27-.99,0l-1.41-1.41c-.27-.27-.27-.72,0-.99l.63-.63c.28-.28,.35-.7,.17-1.06-.14-.29-.27-.59-.37-.89-.13-.39-.49-.65-.89-.65H.8c-.39,0-.7-.32-.7-.7v-2c0-.39,.32-.7,.7-.7h.89c.4,0,.76-.26,.89-.64,.1-.3,.23-.59,.37-.88,.18-.36,.11-.78-.17-1.06l-.65-.65c-.13-.13-.21-.31-.21-.5s.07-.36,.21-.5l1.41-1.42c.26-.27,.73-.27,.99,0l.65,.65c.28,.28,.7,.35,1.06,.17,.28-.14,.58-.26,.88-.36,.38-.13,.64-.48,.64-.88V.8c0-.39,.32-.7,.7-.7h2c.39,0,.7,.32,.7,.7v.92c0,.4,.26,.75,.64,.88,.3,.1,.59,.22,.88,.36,.36,.18,.78,.11,1.06-.17l.65-.66c.27-.27,.72-.27,.99,0l1.41,1.42c.13,.13,.21,.31,.21,.5s-.07,.36-.21,.5l-.65,.65c-.28,.28-.35,.71-.17,1.06,.14,.28,.27,.58,.37,.88,.13,.38,.49,.64,.89,.64h.89c.39,0,.7,.32,.7,.7v2c0,.39-.32,.7-.7,.7h-.88c-.4,0-.76,.26-.89,.65-.1,.3-.23,.6-.37,.89-.18,.36-.11,.78,.17,1.06l.63,.63c.27,.27,.27,.72,0,.99l-1.41,1.41c-.27,.27-.72,.27-.99,0l-.62-.62c-.28-.28-.71-.35-1.06-.17-.29,.14-.59,.27-.89,.37-.39,.13-.65,.5-.65,.9v.85c0,.39-.32,.7-.7,.7Zm-4.66-3.46c.22,0,.44,.05,.65,.15,.27,.13,.55,.25,.83,.35,.6,.21,1.01,.77,1.01,1.4v.85c0,.1,.08,.18,.18,.18h2c.1,0,.18-.08,.18-.18v-.85c0-.63,.4-1.19,1.01-1.4,.28-.1,.56-.21,.83-.35,.56-.28,1.23-.17,1.67,.27l.62,.62c.07,.07,.18,.07,.25,0l1.41-1.41s.05-.08,.05-.13-.02-.09-.05-.13l-.63-.63c-.44-.44-.54-1.1-.27-1.66,.13-.27,.25-.55,.34-.83,.2-.6,.76-1,1.39-1h.88c.1,0,.18-.08,.18-.18v-2c0-.1-.08-.18-.18-.18h-.89c-.62,0-1.18-.4-1.39-1-.1-.28-.21-.55-.34-.81-.28-.56-.17-1.23,.27-1.67l.65-.65s.05-.08,.05-.13-.02-.09-.05-.13l-1.41-1.42c-.07-.07-.18-.07-.25,0l-.65,.65c-.44,.44-1.1,.54-1.66,.27-.26-.13-.54-.24-.82-.34-.59-.2-.99-.75-.99-1.38V.8c0-.1-.08-.18-.18-.18h-2c-.1,0-.18,.08-.18,.18v.92c0,.62-.4,1.18-.99,1.38-.28,.09-.55,.21-.82,.34-.56,.28-1.23,.17-1.66-.27l-.65-.65c-.07-.07-.19-.07-.25,0l-1.41,1.42s-.05,.08-.05,.13,.02,.09,.05,.13l.65,.65c.44,.44,.55,1.11,.27,1.67-.13,.26-.25,.54-.34,.81-.2,.6-.76,1-1.39,1H.8c-.1,0-.18,.08-.18,.18v2c0,.1,.08,.18,.18,.18h.88c.63,0,1.19,.4,1.39,1,.1,.28,.21,.56,.34,.83,.28,.56,.17,1.22-.27,1.66l-.63,.63s-.05,.08-.05,.13,.02,.09,.05,.13l1.41,1.41c.07,.07,.19,.07,.25,0l.62-.62c.28-.28,.64-.42,1.02-.42Z"/><path class="cls-1" d="M10.48,18.96h-2c-.44,0-.8-.36-.8-.8v-.85c0-.36-.24-.69-.58-.81-.31-.11-.61-.23-.91-.38-.32-.16-.7-.1-.95,.15l-.62,.62c-.15,.14-.35,.23-.57,.23h0c-.21,0-.42-.08-.57-.23l-1.41-1.41c-.31-.31-.31-.82,0-1.13l.63-.63c.25-.25,.31-.63,.15-.95-.14-.29-.27-.6-.37-.91-.12-.35-.44-.58-.8-.58H.8c-.44,0-.8-.36-.8-.8v-2c0-.44,.36-.8,.8-.8h.89c.36,0,.68-.23,.8-.58,.1-.3,.23-.6,.37-.89,.16-.32,.1-.7-.15-.95l-.65-.65c-.15-.15-.23-.35-.23-.57s.08-.42,.23-.57l1.41-1.42c.14-.14,.35-.23,.57-.23h0c.22,0,.42,.08,.57,.23l.65,.66c.25,.25,.63,.31,.95,.15,.29-.14,.59-.27,.89-.37,.34-.12,.57-.43,.57-.79V.8c0-.44,.36-.8,.8-.8h2c.44,0,.8,.36,.8,.8v.92c0,.36,.23,.67,.57,.79,.3,.1,.6,.23,.89,.37,.32,.16,.7,.1,.95-.15l.65-.65c.31-.31,.82-.31,1.13,0l1.42,1.42c.15,.15,.23,.35,.23,.57s-.08,.42-.23,.57l-.65,.65c-.25,.25-.31,.63-.15,.95,.14,.29,.27,.59,.37,.89,.12,.34,.44,.58,.8,.58h.89c.44,0,.8,.36,.8,.8v2c0,.44-.36,.8-.8,.8h-.88c-.36,0-.68,.23-.8,.58-.1,.31-.23,.61-.37,.91-.16,.32-.1,.7,.15,.95l.63,.63c.31,.31,.31,.82,0,1.13l-1.41,1.42c-.31,.31-.82,.31-1.13,0l-.62-.62c-.25-.25-.63-.31-.95-.15-.29,.15-.6,.27-.91,.38-.35,.12-.58,.45-.58,.81v.85c0,.44-.36,.8-.8,.8Zm-4.66-3.13c.16,0,.31,.04,.46,.11,.28,.14,.58,.27,.88,.37,.43,.15,.72,.55,.72,1v.85c0,.33,.27,.6,.6,.6h2c.33,0,.6-.27,.6-.6v-.85c0-.45,.29-.85,.72-1,.3-.1,.6-.23,.88-.37,.4-.2,.87-.12,1.18,.19l.62,.62c.24,.23,.62,.24,.86,0l1.41-1.42c.24-.24,.24-.62,0-.85l-.63-.63c-.31-.31-.38-.78-.19-1.17,.14-.28,.26-.58,.36-.88,.14-.43,.54-.71,.99-.71h.88c.33,0,.6-.27,.6-.6v-2c0-.33-.27-.6-.6-.6h-.89c-.44,0-.84-.28-.98-.71-.1-.29-.22-.59-.36-.87-.2-.4-.12-.87,.19-1.18l.65-.65c.11-.11,.18-.27,.18-.43s-.06-.31-.18-.43l-1.41-1.41c-.24-.24-.62-.24-.86,0l-.65,.65c-.31,.31-.78,.38-1.17,.19-.28-.14-.57-.26-.87-.36-.42-.14-.7-.53-.7-.97V.8c0-.33-.27-.6-.6-.6h-2c-.33,0-.6,.27-.6,.6v.92c0,.44-.28,.83-.7,.97-.29,.1-.59,.22-.87,.36-.39,.19-.87,.12-1.17-.19l-.65-.66c-.11-.11-.26-.17-.43-.17h0c-.16,0-.32,.06-.43,.17l-1.42,1.42c-.11,.11-.18,.27-.18,.43s.06,.31,.18,.43l.65,.65c.31,.31,.38,.78,.19,1.18-.14,.28-.26,.57-.36,.87-.15,.42-.54,.71-.98,.71H.8c-.33,0-.6,.27-.6,.6v2c0,.33,.27,.6,.6,.6h.88c.45,0,.84,.29,.99,.71,.1,.3,.22,.6,.36,.88,.19,.39,.12,.86-.19,1.17l-.63,.63c-.24,.24-.24,.62,0,.85l1.42,1.42c.11,.11,.26,.17,.43,.17h0c.16,0,.32-.06,.43-.17l.62-.62c.19-.19,.45-.3,.72-.3Zm4.66,2.6h-2c-.15,0-.28-.12-.28-.28v-.85c0-.59-.38-1.11-.94-1.31-.29-.1-.57-.22-.84-.35-.19-.09-.4-.14-.61-.14-.36,0-.69,.14-.95,.39l-.62,.62c-.05,.05-.12,.08-.19,.08h0c-.07,0-.15-.03-.2-.08l-1.42-1.42c-.05-.05-.08-.12-.08-.2s.03-.14,.08-.2l.63-.63c.41-.41,.51-1.03,.25-1.55-.13-.27-.25-.55-.35-.84-.19-.56-.71-.94-1.3-.94H.8c-.15,0-.28-.12-.28-.28v-2c0-.15,.12-.28,.28-.28h.89c.58,0,1.1-.37,1.29-.93,.1-.28,.21-.56,.35-.83,.26-.52,.16-1.15-.25-1.55l-.65-.65c-.05-.05-.08-.12-.08-.2s.03-.14,.08-.2l1.42-1.42c.1-.1,.29-.1,.39,0l.66,.66c.41,.41,1.03,.51,1.55,.25,.27-.13,.55-.25,.83-.34,.55-.19,.92-.7,.92-1.28V.8c0-.15,.12-.28,.28-.28h2c.15,0,.28,.12,.28,.28v.92c0,.58,.37,1.1,.93,1.28,.28,.1,.56,.21,.83,.34,.52,.26,1.14,.16,1.55-.25l.65-.65c.05-.05,.12-.08,.2-.08,.08,0,.14,.03,.2,.08l1.42,1.42c.05,.05,.08,.12,.08,.2s-.03,.14-.08,.2l-.65,.65c-.41,.41-.51,1.03-.25,1.55,.13,.27,.25,.55,.35,.83,.19,.56,.71,.93,1.29,.93h.89c.15,0,.28,.12,.28,.28v2c0,.15-.12,.28-.28,.28h-.88c-.59,0-1.11,.38-1.3,.94-.1,.29-.21,.57-.35,.84-.26,.52-.16,1.14,.25,1.55l.63,.63c.05,.05,.08,.12,.08,.2s-.03,.14-.08,.2l-1.41,1.41c-.11,.11-.28,.11-.39,0l-.62-.62c-.41-.41-1.03-.51-1.55-.25-.27,.14-.55,.25-.84,.35-.56,.19-.94,.72-.94,1.31v.85c0,.15-.12,.28-.28,.28Zm-4.66-3.13c.24,0,.48,.06,.69,.16,.26,.13,.54,.25,.82,.34,.64,.22,1.07,.82,1.07,1.49v.85s.04,.08,.08,.08h2s.08-.04,.08-.08v-.85c0-.67,.43-1.27,1.07-1.49,.28-.1,.55-.21,.82-.34,.6-.3,1.31-.18,1.78,.29l.62,.62s.08,.03,.11,0l1.41-1.41s.02-.03,.02-.06,0-.04-.02-.06l-.63-.63c-.47-.47-.58-1.18-.29-1.77,.13-.26,.24-.54,.34-.82,.22-.64,.81-1.07,1.48-1.07h.88s.08-.04,.08-.08v-2s-.04-.08-.08-.08h-.89c-.67,0-1.26-.43-1.48-1.06-.09-.27-.21-.54-.34-.8-.3-.6-.18-1.31,.29-1.78l.65-.65s.02-.04,.02-.06,0-.04-.02-.06l-1.42-1.42s-.04-.02-.06-.02h0s-.04,0-.06,.02l-.66,.66c-.47,.47-1.18,.58-1.78,.29-.26-.13-.53-.24-.8-.33-.63-.21-1.06-.81-1.06-1.47V.8s-.04-.08-.08-.08h-2s-.08,.04-.08,.08v.92c0,.66-.43,1.26-1.06,1.47-.27,.09-.54,.2-.8,.33-.59,.29-1.31,.18-1.78-.29l-.65-.66s-.09-.03-.11,0l-1.42,1.42s-.02,.04-.02,.06,0,.04,.02,.06l.65,.65c.47,.47,.58,1.18,.29,1.78-.13,.26-.24,.53-.34,.8-.22,.63-.81,1.06-1.48,1.06H.8s-.08,.04-.08,.08v2s.04,.08,.08,.08h.88c.67,0,1.27,.43,1.48,1.07,.09,.28,.21,.55,.34,.82,.29,.59,.18,1.31-.29,1.77l-.63,.63s-.02,.04-.02,.06,0,.04,.02,.06l1.41,1.42s.03,.02,.06,.02h0s.04,0,.06-.02l.62-.62c.29-.29,.68-.45,1.09-.45Z"/></g><g><path class="cls-1" d="M9.48,14.72c-2.89,0-5.24-2.35-5.24-5.24s2.35-5.24,5.24-5.24,5.24,2.35,5.24,5.24-2.35,5.24-5.24,5.24Zm0-9.95c-2.6,0-4.71,2.11-4.71,4.71s2.11,4.71,4.71,4.71,4.71-2.11,4.71-4.71-2.11-4.71-4.71-4.71Z"/><path class="cls-1" d="M9.48,14.82c-2.94,0-5.34-2.39-5.34-5.34s2.39-5.34,5.34-5.34,5.34,2.39,5.34,5.34-2.39,5.34-5.34,5.34Zm0-10.47c-2.83,0-5.14,2.31-5.14,5.14s2.31,5.14,5.14,5.14,5.14-2.31,5.14-5.14-2.31-5.14-5.14-5.14Zm0,9.95c-2.65,0-4.81-2.16-4.81-4.81s2.16-4.81,4.81-4.81,4.81,2.16,4.81,4.81-2.16,4.81-4.81,4.81Zm0-9.43c-2.54,0-4.61,2.07-4.61,4.61s2.07,4.61,4.61,4.61,4.61-2.07,4.61-4.61-2.07-4.61-4.61-4.61Z"/></g></g></g></svg>